<?xml version="1.0" encoding="UTF-8" standalone="no"?>
<!DOCTYPE svg PUBLIC "-//W3C//DTD SVG 1.1//EN" "http://www.w3.org/Graphics/SVG/1.1/DTD/svg11.dtd">
<svg version="1.1" xmlns="http://www.w3.org/2000/svg" xmlns:xlink="http://www.w3.org/1999/xlink" preserveAspectRatio="xMidYMid meet" viewBox="0 0 640 640" width="640" height="640"><defs><path d="M266.49 48.12L266.49 63.28L262.03 63.28L262.03 48.12L266.49 48.12Z" id="c6gcEMZiL"></path><path d="M315.56 48.12L315.56 63.28L311.1 63.28L311.1 48.12L315.56 48.12Z" id="b30bqvBh50"></path><path d="M364.63 48.12L364.63 63.28L360.17 63.28L360.17 48.12L364.63 48.12Z" id="a2VZ9ZSqZD"></path><path d="M264.82 122.01C255.88 122.01 248.64 115.86 248.64 108.27C248.64 108.27 248.64 108.27 248.64 108.27C248.64 88.38 248.64 77.33 248.64 75.12C248.64 67.53 255.88 61.38 264.82 61.38C274.62 61.38 353.02 61.38 362.82 61.38C371.21 61.38 378.01 67.16 378.01 74.29C378.01 74.29 378.01 74.29 378.01 74.29C378.01 77.77 378.01 105.62 378.01 109.1C378.01 116.23 371.21 122.01 362.82 122.01C362.82 122.01 362.82 122.01 362.82 122.01C343.22 122.01 274.62 122.01 264.82 122.01Z" id="d3CyeHJcGk"></path><path d="M264.82 61.38C255.88 61.38 248.64 67.53 248.64 75.12C248.64 78.43 248.64 104.96 248.64 108.27C248.64 112.27 250.7 116.07 254.27 118.67C265.88 113.11 358.69 68.62 370.3 63.06C368.02 61.96 365.44 61.38 362.82 61.38C362.82 61.38 362.82 61.38 362.82 61.38C304.02 61.38 271.35 61.38 264.82 61.38Z" id="a307fjG5ii"></path><path d="M270.95 40.54L277.64 40.54L270.21 31.07L275.41 31.07L264.26 12.12L253.11 31.07L258.31 31.07L250.87 40.54L257.57 40.54L248.64 50.02L279.87 50.02L270.95 40.54Z" id="a1EurqG86L"></path><path d="M320.02 40.54L326.71 40.54L319.28 31.07L324.48 31.07L313.33 12.12L302.18 31.07L307.38 31.07L299.95 40.54L306.64 40.54L297.72 50.02L328.94 50.02L320.02 40.54Z" id="aTlZcCBSJ"></path><path d="M369.09 40.54L375.78 40.54L368.35 31.07L373.55 31.07L362.4 12.12L351.25 31.07L356.45 31.07L349.02 40.54L355.71 40.54L346.79 50.02L378.01 50.02L369.09 40.54Z" id="anZpEf9rR"></path><path d="M292.32 83.64C290.71 81.98 287.82 81.75 285.86 83.12C285.64 83.27 285.43 83.45 285.25 83.64C281.85 86.69 276.18 86.82 272.59 83.93C272.47 83.83 272.36 83.74 272.25 83.64C271.37 82.75 270.08 82.24 268.72 82.22C268.72 81.84 268.72 78.81 268.72 78.43C271.17 78.44 273.52 79.3 275.21 80.81C276.82 82.47 279.71 82.7 281.66 81.33C281.89 81.18 282.1 81 282.28 80.81C285.69 77.76 291.36 77.63 294.95 80.52C295.07 80.61 295.18 80.71 295.28 80.81C296.9 82.47 299.79 82.7 301.75 81.33C301.97 81.17 302.18 81 302.36 80.81C304.06 79.3 306.41 78.44 308.87 78.43C308.87 78.81 308.87 81.84 308.87 82.22C307.5 82.24 306.21 82.75 305.33 83.64C303.63 85.15 301.28 86.01 298.83 86.01C298.83 86.01 298.83 86.01 298.83 86.01C295.62 85.44 293.45 84.65 292.32 83.64Z" id="b2D0hZSkIA"></path><path d="M357.01 89.32C355.39 87.66 352.5 87.43 350.55 88.8C350.32 88.96 350.12 89.13 349.93 89.32C346.53 92.37 340.86 92.5 337.27 89.61C337.16 89.52 337.04 89.42 336.93 89.32C336.06 88.44 334.77 87.92 333.4 87.91C333.4 87.53 333.4 84.5 333.4 84.12C335.86 84.12 338.2 84.98 339.9 86.49C341.51 88.15 344.39 88.38 346.35 87.02C346.57 86.86 346.78 86.68 346.97 86.49C350.37 83.44 356.04 83.31 359.64 86.21C359.75 86.3 359.86 86.39 359.97 86.49C361.58 88.15 364.48 88.39 366.43 87.01C366.66 86.86 366.86 86.68 367.05 86.49C368.75 84.98 371.09 84.12 373.55 84.12C373.55 84.5 373.55 87.53 373.55 87.91C372.19 87.92 370.89 88.44 370.01 89.32C368.31 90.83 365.97 91.69 363.51 91.7C361.05 91.69 358.7 90.83 357.01 89.32Z" id="gJcsBpJRd"></path><path d="M312.4 112.06C310.78 110.4 307.89 110.16 305.94 111.53C305.71 111.69 305.51 111.87 305.32 112.06C301.92 115.11 296.25 115.24 292.66 112.35C292.55 112.25 292.43 112.16 292.32 112.06C291.45 111.17 290.16 110.66 288.79 110.64C288.79 110.26 288.79 107.23 288.79 106.85C291.25 106.86 293.6 107.72 295.29 109.23C296.9 110.88 299.78 111.12 301.74 109.75C301.96 109.6 302.17 109.42 302.36 109.23C305.76 106.18 311.43 106.05 315.03 108.94C315.14 109.03 315.25 109.13 315.36 109.22C316.97 110.89 319.87 111.12 321.82 109.75C322.05 109.59 322.25 109.42 322.44 109.23C324.14 107.72 326.48 106.86 328.94 106.85C328.94 107.23 328.94 110.26 328.94 110.64C327.58 110.66 326.28 111.17 325.4 112.06C323.7 113.57 321.36 114.42 318.9 114.43C318.9 114.43 318.9 114.43 318.9 114.43C315.7 113.86 313.53 113.06 312.4 112.06Z" id="d1TS4UAt1o"></path><path d="M264.26 12.12L253.11 31.07L258.31 31.07L250.87 40.54L257.57 40.54L248.64 50.02L264.26 50.02L264.26 12.12Z" id="bgergLDjw"></path><path d="M313.33 12.12L302.18 31.07L307.38 31.07L299.95 40.54L306.64 40.54L297.72 50.02L313.33 50.02L313.33 12.12Z" id="hmb2kh1rF"></path><path d="M362.4 12.12L351.25 31.07L356.45 31.07L349.02 40.54L355.71 40.54L346.79 50.02L362.4 50.02L362.4 12.12Z" id="a2Ip4C6Q1s"></path><path d="M303.76 103.18L324.7 103.38L322.9 289.62L301.96 289.42L303.76 103.18Z" id="c3Iqlt25oa"></path><path d="M459.97 289.53L459.97 310.47L166.81 310.47L166.81 289.53L459.97 289.53Z" id="aq9BTDE6"></path><path d="M168.1 289.53L189.03 289.73L187.75 423.11L166.81 422.91L168.1 289.53Z" id="c7e9GznQH"></path><path d="M257.53 289.53L278.47 289.73L277.18 423.11L256.24 422.91L257.53 289.53Z" id="ewbwEbDCT"></path><path d="M356.94 289.53L377.88 289.73L376.6 423.11L355.66 422.91L356.94 289.53Z" id="b2ZqJY5H87"></path><path d="M439.03 289.53L459.97 289.73L458.68 423.11L437.74 422.91L439.03 289.53Z" id="d97QIsSZj"></path><path d="M214.27 488.76C204.67 484.65 198.57 480.69 198.57 480.69C203.15 480.98 205.55 477.23 205.55 477.23C201.08 476.51 193.35 471.47 193.35 471.47C197.82 471.39 203.83 469.16 203.83 469.16C199.03 468.66 186.42 459.94 186.42 459.94C190.34 460.3 193.45 458.79 193.45 458.79C189.52 458.28 183.09 453.02 183.09 453.02C188 453.17 192.03 451.87 192.03 451.87C183.52 448.4 176.52 439.57 173.36 435.04C171.7 436.09 170.67 437.56 170.67 439.19C170.67 437.56 169.63 436.09 167.97 435.04C164.81 439.57 157.81 448.4 149.3 451.87C149.3 451.87 153.33 453.17 158.24 453.03C158.24 453.03 151.81 458.28 147.88 458.79C147.88 458.79 150.99 460.3 154.91 459.94C154.91 459.94 142.3 468.66 137.5 469.16C137.5 469.16 143.51 471.39 147.98 471.47C147.98 471.47 140.25 476.51 135.78 477.23C135.78 477.23 138.18 480.98 142.76 480.69C142.76 480.69 136.66 484.65 127.06 488.76C127.06 488.76 148.76 489.19 158.46 485.3C158.46 485.3 149.19 490.85 146.25 491.06C146.25 491.06 159.55 490.99 164.56 487.6C164.56 487.6 167.18 489.55 170.67 489.91C174.15 489.55 176.77 487.6 176.77 487.6C181.78 490.99 195.08 491.06 195.08 491.06C192.14 490.85 182.87 485.3 182.87 485.3C192.58 489.19 214.27 488.76 214.27 488.76" id="ckW79ZQkm"></path><path d="M174.49 461.09C173.04 461.09 172.24 461.09 172.08 461.09C171.3 461.09 170.67 460.68 170.67 460.16C170.67 460 170.67 458.73 170.67 458.57C170.67 458.05 171.3 457.64 172.08 457.64C172.32 457.64 174.24 457.64 174.49 457.64C175.26 457.64 175.9 458.05 175.9 458.57C175.9 458.73 175.9 460 175.9 460.16C175.9 460.68 175.26 461.09 174.49 461.09" id="d43y8mLC"></path><path d="M169.25 450.72C167.81 450.72 167.01 450.72 166.84 450.72C166.06 450.72 165.43 450.3 165.43 449.79C165.43 449.63 165.43 448.35 165.43 448.2C165.43 447.68 166.06 447.26 166.84 447.26C167.09 447.26 169.01 447.26 169.25 447.26C170.03 447.26 170.67 447.68 170.67 448.2C170.67 448.35 170.67 449.63 170.67 449.79C170.67 450.3 170.03 450.72 169.25 450.72" id="k8ok78FLq1"></path><path d="M162.28 466.86C160.83 466.86 160.03 466.86 159.87 466.86C159.09 466.86 158.46 466.44 158.46 465.92C158.46 465.76 158.46 464.49 158.46 464.33C158.46 463.82 159.09 463.4 159.87 463.4C160.11 463.4 162.04 463.4 162.28 463.4C163.06 463.4 163.69 463.82 163.69 464.33C163.69 464.49 163.69 465.76 163.69 465.92C163.69 466.44 163.06 466.86 162.28 466.86" id="jDem0RwRq"></path><path d="M184.95 469.16C183.5 469.16 182.7 469.16 182.54 469.16C181.76 469.16 181.13 468.74 181.13 468.23C181.13 468.07 181.13 466.8 181.13 466.64C181.13 466.12 181.76 465.7 182.54 465.7C182.78 465.7 184.71 465.7 184.95 465.7C185.73 465.7 186.36 466.12 186.36 466.64C186.36 466.8 186.36 468.07 186.36 468.23C186.36 468.74 185.73 469.16 184.95 469.16" id="d1qjh5jnd5"></path><path d="M184.95 481.84C183.5 481.84 182.7 481.84 182.54 481.84C181.76 481.84 181.13 481.42 181.13 480.91C181.13 480.75 181.13 479.48 181.13 479.32C181.13 478.8 181.76 478.38 182.54 478.38C182.78 478.38 184.71 478.38 184.95 478.38C185.73 478.38 186.36 478.8 186.36 479.32C186.36 479.48 186.36 480.75 186.36 480.91C186.36 481.42 185.73 481.84 184.95 481.84" id="a5Yst4K7Ad"></path><path d="M171 474.93C169.55 474.93 168.75 474.93 168.59 474.93C167.81 474.93 167.18 474.51 167.18 473.99C167.18 473.83 167.18 472.56 167.18 472.4C167.18 471.88 167.81 471.47 168.59 471.47C168.83 471.47 170.76 471.47 171 471.47C171.78 471.47 172.41 471.88 172.41 472.4C172.41 472.56 172.41 473.83 172.41 473.99C172.41 474.51 171.78 474.93 171 474.93" id="h1hDFdpmCO"></path><path d="M157.04 480.69C155.6 480.69 154.8 480.69 154.64 480.69C153.86 480.69 153.23 480.27 153.23 479.75C153.23 479.6 153.23 478.32 153.23 478.16C153.23 477.65 153.86 477.23 154.64 477.23C154.88 477.23 156.8 477.23 157.04 477.23C157.82 477.23 158.46 477.65 158.46 478.16C158.46 478.32 158.46 479.6 158.46 479.75C158.46 480.27 157.82 480.69 157.04 480.69" id="a2xgi0PbXo"></path><path d="M170.67 489.91C169.34 489.77 168.15 489.41 167.18 489.01C167.18 489.38 167.18 491.22 167.18 494.52L174.15 494.52C174.15 491.22 174.15 489.38 174.15 489.01C173.18 489.41 171.99 489.77 170.67 489.91" id="b3ZrnkB45E"></path><path d="M161.94 433.43C166.77 433.43 170.67 430.85 170.67 427.67C170.67 430.85 174.56 433.43 179.39 433.43C174.56 433.43 170.67 436.01 170.67 439.19C170.67 436.01 166.77 433.43 161.94 433.43" id="aeIB74DNe"></path><path d="M179.39 495.67C168.92 495.67 163.11 495.67 161.94 495.67C160.98 495.67 160.2 495.16 160.2 494.52C160.2 493.88 160.98 493.37 161.94 493.37C163.69 493.37 177.64 493.37 179.39 493.37C180.35 493.37 181.13 493.88 181.13 494.52C181.13 495.16 180.35 495.67 179.39 495.67" id="c17GmuYz6s"></path><path d="M455.73 449.85C451.85 455.65 451.2 457.33 450.13 460.11C449.64 461.38 449.27 462.71 449.03 464.07C448.37 462.79 447.56 461.62 446.61 460.61C443.63 457.33 440.25 454.58 436.58 452.42C436.09 452.14 435.5 452.36 435.25 452.91C435 453.47 435.19 454.16 435.68 454.44C439.19 456.5 442.43 459.14 445.27 462.28C446.83 464.01 447.99 466.16 448.65 468.53C448.67 471.39 449.14 474.22 450.03 476.89C450.25 477.47 450.83 477.73 451.33 477.48C451.84 477.24 452.07 476.57 451.85 475.99C451.82 475.92 449.08 468.41 451.94 461.03C452.95 458.41 453.57 456.82 457.3 451.24C457.46 451 457.53 450.69 457.49 450.4C457.46 450.1 457.32 449.83 457.12 449.64C456.68 449.26 456.06 449.36 455.73 449.85Z" id="c7dCxMj9Ct"></path><path d="M472.82 485.47C472.54 485.47 472.25 485.49 471.97 485.54C472.19 484.52 472.3 483.47 472.3 482.43C472.32 479.06 471.18 475.82 469.13 473.42C467.07 471.02 464.27 469.65 461.33 469.62C457.39 469.63 453.77 472.08 451.85 476.03C451.71 476.31 451.48 476.51 451.21 476.59C450.93 476.67 450.64 476.61 450.41 476.44C448.68 475.17 446.67 474.5 444.62 474.5C439.36 474.54 434.86 478.84 433.87 484.76C433.81 485.07 433.65 485.34 433.42 485.51C433.19 485.69 432.9 485.74 432.63 485.67C432.11 485.54 431.58 485.47 431.04 485.48C426.68 485.52 423.17 489.61 423.21 494.62C427.04 494.62 446.19 494.62 480.65 494.62C478.34 488.55 475.73 485.51 472.82 485.47Z" id="b2KPm4tT4Y"></path><path d="M440.34 484.06C440.24 483.95 439.45 483.04 439.35 482.92C438.97 482.48 438.97 481.77 439.35 481.33C439.74 480.88 440.36 480.88 440.75 481.32C440.85 481.43 441.64 482.34 441.74 482.45C442.02 482.78 442.11 483.27 441.95 483.69C441.8 484.12 441.44 484.39 441.04 484.39C440.77 484.39 440.52 484.27 440.34 484.06Z" id="a1azdeJtCU"></path><path d="M456.18 480.65C456.08 480.54 455.29 479.63 455.19 479.52C454.81 479.07 454.82 478.36 455.2 477.92C455.58 477.48 456.21 477.47 456.59 477.91C456.69 478.02 457.49 478.93 457.58 479.05C457.87 479.37 457.95 479.86 457.8 480.28C457.65 480.71 457.28 480.99 456.88 480.99C456.62 480.99 456.37 480.87 456.18 480.65Z" id="a1gN5tfm34"></path><path d="M456.18 490.88C456.08 490.76 455.29 489.86 455.19 489.74C454.81 489.3 454.82 488.58 455.2 488.14C455.58 487.7 456.21 487.7 456.59 488.14C456.69 488.25 457.49 489.16 457.58 489.27C457.87 489.6 457.95 490.09 457.8 490.51C457.65 490.93 457.28 491.21 456.88 491.21C456.62 491.21 456.37 491.09 456.18 490.88Z" id="bQFd4YfAV"></path><path d="M467.08 490.88C466.98 490.76 466.19 489.86 466.09 489.74C465.71 489.3 465.71 488.58 466.09 488.14C466.48 487.7 467.1 487.7 467.49 488.14C467.59 488.25 468.38 489.16 468.48 489.27C468.76 489.6 468.85 490.09 468.69 490.51C468.54 490.93 468.18 491.21 467.78 491.21C467.52 491.21 467.26 491.09 467.08 490.88Z" id="e4c9irPqmn"></path><path d="M445.07 481.42C444.92 481 445.01 480.51 445.29 480.18C445.39 480.07 446.18 479.16 446.28 479.05C446.67 478.61 447.29 478.61 447.67 479.05C448.06 479.49 448.06 480.21 447.68 480.65C447.58 480.77 446.79 481.67 446.69 481.79C446.5 482 446.25 482.12 445.99 482.12C445.59 482.12 445.23 481.84 445.07 481.42Z" id="agZ5u7FQf"></path><path d="M459.93 485.96C459.78 485.54 459.86 485.05 460.15 484.73C460.24 484.61 461.04 483.7 461.14 483.59C461.52 483.15 462.15 483.16 462.53 483.6C462.91 484.04 462.92 484.75 462.54 485.2C462.44 485.31 461.64 486.22 461.55 486.33C461.36 486.55 461.11 486.67 460.85 486.67C460.85 486.67 460.85 486.67 460.85 486.67C460.34 486.48 460.03 486.25 459.93 485.96Z" id="adb8Mi260"></path><path d="M460.92 475.74C460.77 475.31 460.85 474.83 461.14 474.5C461.23 474.39 462.03 473.48 462.13 473.36C462.51 472.93 463.14 472.93 463.52 473.37C463.9 473.81 463.91 474.53 463.53 474.97C463.43 475.08 462.64 475.99 462.54 476.11C462.35 476.32 462.1 476.44 461.84 476.44C461.84 476.44 461.84 476.44 461.84 476.44C461.33 476.26 461.02 476.02 460.92 475.74Z" id="d1ilEmBtn"></path><path d="M440.12 490.51C439.97 490.09 440.05 489.6 440.34 489.27C440.44 489.16 441.23 488.25 441.33 488.14C441.72 487.7 442.34 487.7 442.72 488.14C443.11 488.58 443.11 489.3 442.73 489.74C442.63 489.86 441.84 490.76 441.74 490.88C441.55 491.09 441.3 491.21 441.04 491.21C440.64 491.21 440.28 490.93 440.12 490.51Z" id="b1i2e9V3SZ"></path><path d="M448.05 487.1C447.89 486.68 447.98 486.19 448.26 485.86C448.36 485.75 449.15 484.84 449.25 484.73C449.64 484.29 450.26 484.29 450.65 484.73C451.03 485.17 451.03 485.89 450.65 486.33C450.55 486.45 449.76 487.36 449.66 487.47C449.48 487.68 449.22 487.8 448.96 487.8C448.96 487.8 448.96 487.8 448.96 487.8C448.45 487.62 448.15 487.38 448.05 487.1Z" id="a3kdG74MK1"></path><path d="M465.87 481.42C465.72 481 465.8 480.51 466.09 480.18C466.19 480.07 466.98 479.16 467.08 479.05C467.47 478.61 468.09 478.61 468.47 479.05C468.86 479.49 468.86 480.21 468.48 480.65C468.38 480.77 467.59 481.67 467.49 481.79C467.3 482 467.05 482.12 466.79 482.12C466.39 482.12 466.03 481.84 465.87 481.42Z" id="dzQ71TvFr"></path><path d="M429.69 491.43C429.61 491.22 429.65 490.97 429.79 490.81C429.89 490.7 430.68 489.79 430.78 489.67C430.98 489.46 431.29 489.46 431.48 489.68C431.67 489.9 431.67 490.25 431.48 490.48C431.38 490.59 430.59 491.5 430.49 491.61C430.4 491.72 430.27 491.78 430.14 491.78C429.94 491.78 429.76 491.64 429.69 491.43Z" id="b2qn2CDSKG"></path><path d="M435.63 489.16C435.55 488.94 435.59 488.7 435.74 488.54C435.83 488.42 436.63 487.51 436.73 487.4C436.92 487.19 437.23 487.19 437.42 487.41C437.61 487.63 437.61 487.98 437.43 488.2C437.33 488.32 436.53 489.23 436.44 489.34C436.34 489.45 436.22 489.51 436.09 489.51C436.09 489.51 436.09 489.51 436.09 489.51C435.83 489.41 435.68 489.3 435.63 489.16Z" id="b6celzsVh"></path><path d="M443.55 485.75C443.47 485.54 443.52 485.29 443.66 485.13C443.76 485.01 444.55 484.11 444.65 483.99C444.84 483.78 445.15 483.78 445.34 484C445.53 484.22 445.54 484.57 445.35 484.8C445.25 484.91 444.46 485.82 444.36 485.93C444.27 486.04 444.14 486.1 444.01 486.1C443.81 486.1 443.63 485.96 443.55 485.75Z" id="mJS0OVn0u"></path><path d="M446.63 491.61C446.53 491.5 445.74 490.59 445.64 490.48C445.45 490.25 445.45 489.9 445.65 489.68C445.84 489.46 446.15 489.46 446.34 489.67C446.44 489.79 447.23 490.7 447.33 490.81C447.47 490.97 447.51 491.22 447.44 491.43C447.36 491.64 447.18 491.78 446.98 491.78C446.85 491.78 446.72 491.72 446.63 491.61Z" id="dzr84nMQI"></path><path d="M461.38 490.29C461.3 490.08 461.34 489.84 461.49 489.67C461.58 489.56 462.38 488.65 462.48 488.54C462.67 488.32 462.98 488.32 463.17 488.54C463.36 488.76 463.36 489.12 463.18 489.34C463.08 489.45 462.29 490.36 462.19 490.48C462.09 490.58 461.97 490.64 461.84 490.64C461.64 490.64 461.46 490.5 461.38 490.29Z" id="bccQBXDcZ"></path><path d="M472.38 491.61C472.28 491.5 471.49 490.59 471.39 490.48C471.2 490.25 471.2 489.9 471.4 489.68C471.59 489.46 471.9 489.46 472.09 489.67C472.19 489.79 472.98 490.7 473.08 490.81C473.22 490.97 473.26 491.22 473.19 491.43C473.11 491.64 472.93 491.78 472.73 491.78C472.6 491.78 472.47 491.72 472.38 491.61Z" id="aF9djtAA4"></path><path d="M461.38 480.07C461.3 479.85 461.34 479.61 461.49 479.45C461.58 479.33 462.38 478.42 462.48 478.31C462.67 478.1 462.98 478.1 463.17 478.32C463.36 478.54 463.36 478.89 463.18 479.11C463.08 479.23 462.29 480.14 462.19 480.25C462.09 480.36 461.97 480.42 461.84 480.42C461.64 480.42 461.46 480.28 461.38 480.07Z" id="a2LvH8Ek1i"></path><path d="M453.46 484.61C453.38 484.4 453.42 484.15 453.56 483.99C453.66 483.88 454.45 482.97 454.55 482.86C454.75 482.64 455.06 482.64 455.25 482.86C455.44 483.08 455.44 483.44 455.25 483.66C455.15 483.77 454.36 484.68 454.26 484.8C454.17 484.9 454.04 484.96 453.91 484.96C453.71 484.96 453.53 484.82 453.46 484.61Z" id="j2WnzsoGq"></path><path d="M451.42 460.7C451.26 460.66 451.1 460.59 450.94 460.53C450.94 460.53 450.87 460.24 450.77 459.72C449.98 455.03 447.72 431.79 480.65 428.72C474.81 435.12 479.67 471.2 451.42 460.7Z" id="fqkzr7NBf"></path><path d="M451.42 460.7C451.26 460.66 451.1 460.59 450.94 460.53C450.94 460.53 450.87 460.24 450.77 459.72C452.41 456.47 461.3 439.92 476.5 432.74C476.67 432.66 476.85 432.69 476.99 432.82C477.13 432.94 477.2 433.14 477.18 433.34C477.16 433.54 477.04 433.71 476.88 433.79C476.88 433.79 476.88 433.79 476.88 433.79C460.37 450.78 451.88 459.75 451.42 460.7Z" id="c161KE4W4L"></path><path d="M446.11 461.39C445.95 461.44 445.79 461.51 445.63 461.56C423.96 469.5 423.21 436.87 423.21 436.87C448.19 439.18 446.9 456.57 446.27 460.57C446.18 461.09 446.14 461.22 446.11 461.39Z" id="i214XmBVeJ"></path><path d="M446.11 461.39C445.95 461.44 445.79 461.51 445.63 461.56C445.02 460.29 438.2 446.61 426.07 440.89C425.91 440.81 425.79 440.64 425.77 440.44C425.75 440.24 425.82 440.04 425.96 439.92C426.1 439.79 426.29 439.77 426.45 439.84C438.03 445.31 444.88 457.81 446.27 460.57C446.18 461.09 446.14 461.22 446.11 461.39Z" id="h1wFfM5HlF"></path><path d="M255.69 448.08C242.85 448.07 232.43 455.97 232.41 465.72C232.4 475.48 242.79 483.4 255.63 483.41C268.47 483.42 278.9 475.52 278.91 465.77C278.92 456.01 268.53 448.09 255.69 448.08Z" id="bkDgah6l0"></path><path d="M275.4 456.44C277.62 459.15 278.92 462.34 278.91 465.77C278.9 472.07 274.53 477.58 267.99 480.71C269.27 480.71 275.68 480.71 287.2 480.72L309.83 480.74L287.28 429.77C280.15 445.77 276.19 454.66 275.4 456.44Z" id="b4vE3x6epF"></path><path d="M250.29 472.54L255.64 476.62" id="ahOiUQLH"></path><path d="M261.02 472.55L255.64 476.62" id="c1HKDDft5f"></path><path d="M255.64 476.62L255.62 495.64" id="eeFNCuYMv"></path><path d="M282.48 472.56L287.84 476.65" id="a10hDYK6K8"></path><path d="M293.21 472.57L287.84 476.65" id="g1Lp8XHLR"></path><path d="M287.84 476.65L287.81 495.67" id="b1505Z7eKq"></path><path d="M364.72 434.39C364.82 435 365.68 435.14 365.97 434.58C365.97 434.58 365.97 434.58 365.97 434.58C367.43 431.76 371.82 433.15 371.3 436.26C371.3 436.26 371.3 436.26 371.3 436.26C371.2 436.88 371.97 437.26 372.42 436.82C372.42 436.82 372.42 436.82 372.42 436.82C374.71 434.58 378.44 437.22 376.96 440.02C376.96 440.02 376.96 440.02 376.96 440.02C376.67 440.57 377.28 441.17 377.85 440.88C377.85 440.88 377.85 440.88 377.85 440.88C380.74 439.44 383.45 443.07 381.15 445.29C381.15 445.29 381.15 445.29 381.15 445.29C380.69 445.73 381.08 446.48 381.72 446.38C381.72 446.38 381.72 446.38 381.72 446.38C384.92 445.87 386.35 450.14 383.45 451.56C383.45 451.56 383.45 451.56 383.45 451.56C382.88 451.84 383.01 452.67 383.65 452.77C383.65 452.77 383.65 452.77 383.65 452.77C386.85 453.25 386.85 457.74 383.65 458.22C383.65 458.22 383.65 458.22 383.65 458.22C383.01 458.31 382.88 459.14 383.45 459.43C383.45 459.43 383.45 459.43 383.45 459.43C386.35 460.85 384.92 465.11 381.72 464.61C381.72 464.61 381.72 464.61 381.72 464.61C381.08 464.51 380.69 465.26 381.15 465.7C381.15 465.7 381.15 465.7 381.15 465.7C383.45 467.92 380.74 471.55 377.85 470.11C377.85 470.11 377.85 470.11 377.85 470.11C377.28 469.82 376.67 470.41 376.96 470.97C376.96 470.97 376.96 470.97 376.96 470.97C378.44 473.77 374.71 476.41 372.42 474.17C372.42 474.17 372.42 474.17 372.42 474.17C371.97 473.73 371.2 474.11 371.3 474.73C371.3 474.73 371.3 474.73 371.3 474.73C371.82 477.84 367.43 479.22 365.97 476.41C365.97 476.41 365.97 476.41 365.97 476.41C365.68 475.85 364.82 475.98 364.72 476.6C364.72 476.6 364.72 476.6 364.72 476.6C364.23 479.71 359.61 479.71 359.11 476.6C359.11 476.6 359.11 476.6 359.11 476.6C359.02 475.98 358.16 475.85 357.87 476.41C357.87 476.41 357.87 476.41 357.87 476.41C356.41 479.22 352.01 477.84 352.53 474.73C352.53 474.73 352.53 474.73 352.53 474.73C352.64 474.11 351.86 473.73 351.41 474.17C351.41 474.17 351.41 474.17 351.41 474.17C349.13 476.41 345.39 473.77 346.87 470.97C346.87 470.97 346.87 470.97 346.87 470.97C347.17 470.41 346.56 469.82 345.98 470.11C345.98 470.11 345.98 470.11 345.98 470.11C343.1 471.55 340.38 467.92 342.69 465.7C342.69 465.7 342.69 465.7 342.69 465.7C343.14 465.26 342.75 464.51 342.12 464.61C342.12 464.61 342.12 464.61 342.12 464.61C338.91 465.11 337.49 460.85 340.38 459.43C340.38 459.43 340.38 459.43 340.38 459.43C340.96 459.14 340.82 458.31 340.19 458.22C340.19 458.22 340.19 458.22 340.19 458.22C336.98 457.74 336.98 453.25 340.19 452.77C340.19 452.77 340.19 452.77 340.19 452.77C340.82 452.67 340.96 451.84 340.38 451.56C340.38 451.56 340.38 451.56 340.38 451.56C337.49 450.14 338.91 445.87 342.12 446.38C342.12 446.38 342.12 446.38 342.12 446.38C342.75 446.48 343.14 445.73 342.69 445.29C342.69 445.29 342.69 445.29 342.69 445.29C340.39 443.07 343.1 439.44 345.98 440.88C345.98 440.88 345.98 440.88 345.98 440.88C346.56 441.17 347.17 440.57 346.88 440.02C346.88 440.02 346.88 440.02 346.88 440.02C345.39 437.22 349.13 434.58 351.41 436.82C351.41 436.82 351.41 436.82 351.41 436.82C351.87 437.26 352.64 436.88 352.54 436.26C352.54 436.26 352.54 436.26 352.54 436.26C352.02 433.15 356.41 431.76 357.87 434.58C357.87 434.58 357.87 434.58 357.87 434.58C358.16 435.13 359.02 435 359.11 434.39C359.11 434.39 359.11 434.39 359.11 434.39C359.61 431.27 364.23 431.27 364.72 434.39C364.72 434.39 364.72 434.39 364.72 434.39Z" id="i2olMTeKy0"></path><path d="M359.11 476.6C359.05 476.19 358.3 475.93 358.3 476.08C358.3 476.23 358.3 494.59 358.3 494.59C358.96 494.59 364.29 494.59 364.96 494.59C364.96 494.59 364.96 476.31 364.96 476.2C364.96 476.09 364.75 476.43 364.72 476.6C364.23 479.71 359.61 479.71 359.11 476.6Z" id="b1SGkiAs66"></path><path d="M363.85 467.64C363.85 462.28 368.33 457.93 373.84 457.93C374.45 457.93 374.95 458.41 374.95 459.01C374.95 459.61 374.45 460.09 373.84 460.09C369.56 460.09 366.07 463.47 366.07 467.64C366.07 468.23 365.57 468.71 364.96 468.71C364.35 468.71 363.85 468.23 363.85 467.64Z" id="a8uRY4Ei5"></path><path d="M357.19 470.87C357.19 466.71 353.7 463.32 349.42 463.32C348.8 463.32 348.31 462.84 348.31 462.24C348.31 461.65 348.8 461.17 349.42 461.17C354.93 461.17 359.41 465.52 359.41 470.87C359.41 471.47 358.91 471.95 358.3 471.95C357.69 471.95 357.19 471.47 357.19 470.87Z" id="bL50RU8rq"></path><path d="M359.41 459.01C359.41 454.85 355.92 451.46 351.64 451.46C351.02 451.46 350.53 450.98 350.53 450.38C350.53 449.79 351.02 449.3 351.64 449.3C357.15 449.3 361.63 453.66 361.63 459.01C361.63 459.61 361.13 460.09 360.52 460.09C359.91 460.09 359.41 459.61 359.41 459.01Z" id="a182yiyUqM"></path><path d="M360.52 450.38C360.52 445.03 365 440.68 370.51 440.68C371.12 440.68 371.62 441.16 371.62 441.76C371.62 442.35 371.12 442.83 370.51 442.83C366.23 442.83 362.74 446.22 362.74 450.38C362.74 450.98 362.24 451.46 361.63 451.46C361.02 451.46 360.52 450.98 360.52 450.38Z" id="kGtqXD7cz"></path><path d="M373.84 447.15C373.84 446.55 374.34 446.07 374.95 446.07C375.56 446.07 376.06 446.55 376.06 447.15C376.06 448.34 377.06 449.3 378.28 449.3C378.9 449.3 379.39 449.79 379.39 450.38C379.39 450.98 378.9 451.46 378.28 451.46C375.83 451.46 373.84 449.53 373.84 447.15Z" id="d2EitMzDTg"></path><path d="M367.18 454.7C367.18 452.32 369.17 450.38 371.62 450.38C372.23 450.38 372.73 450.86 372.73 451.46C372.73 452.06 372.23 452.54 371.62 452.54C370.4 452.54 369.4 453.51 369.4 454.7C369.4 455.29 368.9 455.77 368.29 455.77C367.68 455.77 367.18 455.29 367.18 454.7Z" id="e9h9HgaY"></path><path d="M353.86 439.6C353.86 439 354.35 438.52 354.97 438.52C355.58 438.52 356.08 439 356.08 439.6C356.08 440.79 357.07 441.76 358.3 441.76C358.91 441.76 359.41 442.24 359.41 442.83C359.41 443.43 358.91 443.91 358.3 443.91C355.85 443.91 353.86 441.98 353.86 439.6Z" id="fh0s8Kbof"></path><path d="M344.98 456.85C344.98 456.26 345.47 455.77 346.09 455.77C347.31 455.77 348.31 454.81 348.31 453.62C348.31 453.02 348.8 452.54 349.42 452.54C350.03 452.54 350.53 453.02 350.53 453.62C350.53 456 348.53 457.93 346.09 457.93C345.47 457.93 344.98 457.45 344.98 456.85Z" id="f27ssEBcrB"></path><path d="M371.62 467.64C371.62 465.26 373.61 463.32 376.06 463.32C376.67 463.32 377.17 463.8 377.17 464.4C377.17 465 376.67 465.48 376.06 465.48C374.84 465.48 373.84 466.45 373.84 467.64C373.84 468.23 373.34 468.71 372.73 468.71C372.12 468.71 371.62 468.23 371.62 467.64Z" id="cQ8A7suAZ"></path><path d="M353.86 494.59C353.86 494.49 353.86 493.62 353.86 493.52C353.86 492.92 354.35 492.44 354.97 492.44C355.58 492.44 356.08 492.92 356.08 493.52C356.08 493.62 356.08 494.49 356.08 494.59C356.08 495.19 355.58 495.67 354.97 495.67C354.35 495.67 353.86 495.19 353.86 494.59Z" id="ltvSQcEJl"></path><path d="M350.53 494.59C350.53 494.49 350.53 493.62 350.53 493.52C350.53 492.92 351.02 492.44 351.64 492.44C352.25 492.44 352.75 492.92 352.75 493.52C352.75 493.62 352.75 494.49 352.75 494.59C352.75 495.19 352.25 495.67 351.64 495.67C351.02 495.67 350.53 495.19 350.53 494.59Z" id="brDHKaaMj"></path><path d="M347.2 494.59C347.2 494.49 347.2 493.62 347.2 493.52C347.2 492.92 347.69 492.44 348.31 492.44C348.92 492.44 349.42 492.92 349.42 493.52C349.42 493.62 349.42 494.49 349.42 494.59C349.42 495.19 348.92 495.67 348.31 495.67C347.69 495.67 347.2 495.19 347.2 494.59Z" id="b7jk9Ea6NA"></path><path d="M343.87 494.59C343.87 494.49 343.87 493.62 343.87 493.52C343.87 492.92 344.36 492.44 344.98 492.44C345.59 492.44 346.09 492.92 346.09 493.52C346.09 493.62 346.09 494.49 346.09 494.59C346.09 495.19 345.59 495.67 344.98 495.67C344.36 495.67 343.87 495.19 343.87 494.59Z" id="b2izizneHn"></path><path d="M340.53 494.59C340.53 494.49 340.53 493.62 340.53 493.52C340.53 492.92 341.03 492.44 341.64 492.44C342.26 492.44 342.76 492.92 342.76 493.52C342.76 493.62 342.76 494.49 342.76 494.59C342.76 495.19 342.26 495.67 341.64 495.67C341.03 495.67 340.53 495.19 340.53 494.59Z" id="h1lqBJeEP8"></path><path d="M373.84 494.59C373.84 494.49 373.84 493.62 373.84 493.52C373.84 492.92 374.34 492.44 374.95 492.44C375.56 492.44 376.06 492.92 376.06 493.52C376.06 493.62 376.06 494.49 376.06 494.59C376.06 495.19 375.56 495.67 374.95 495.67C374.34 495.67 373.84 495.19 373.84 494.59Z" id="g2hPHC4C0z"></path><path d="M370.51 494.59C370.51 494.49 370.51 493.62 370.51 493.52C370.51 492.92 371.01 492.44 371.62 492.44C372.23 492.44 372.73 492.92 372.73 493.52C372.73 493.62 372.73 494.49 372.73 494.59C372.73 495.19 372.23 495.67 371.62 495.67C371.01 495.67 370.51 495.19 370.51 494.59Z" id="j1KtwGNHGn"></path><path d="M367.18 494.59C367.18 494.49 367.18 493.62 367.18 493.52C367.18 492.92 367.68 492.44 368.29 492.44C368.9 492.44 369.4 492.92 369.4 493.52C369.4 493.62 369.4 494.49 369.4 494.59C369.4 495.19 368.9 495.67 368.29 495.67C367.68 495.67 367.18 495.19 367.18 494.59Z" id="c17VCBGNos"></path><path d="M383.83 494.59C383.83 494.49 383.83 493.62 383.83 493.52C383.83 492.92 384.33 492.44 384.94 492.44C385.56 492.44 386.05 492.92 386.05 493.52C386.05 493.62 386.05 494.49 386.05 494.59C386.05 495.19 385.56 495.67 384.94 495.67C384.33 495.67 383.83 495.19 383.83 494.59Z" id="b3Uo9k1Ghf"></path><path d="M380.5 494.59C380.5 494.49 380.5 493.62 380.5 493.52C380.5 492.92 381 492.44 381.61 492.44C382.23 492.44 382.72 492.92 382.72 493.52C382.72 493.62 382.72 494.49 382.72 494.59C382.72 495.19 382.23 495.67 381.61 495.67C381 495.67 380.5 495.19 380.5 494.59Z" id="b33tgmHKsC"></path><path d="M377.17 494.59C377.17 494.49 377.17 493.62 377.17 493.52C377.17 492.92 377.67 492.44 378.28 492.44C378.9 492.44 379.39 492.92 379.39 493.52C379.39 493.62 379.39 494.49 379.39 494.59C379.39 495.19 378.9 495.67 378.28 495.67C377.67 495.67 377.17 495.19 377.17 494.59Z" id="a8AHFl4enX"></path><path d="M393.83 494.59C393.83 494.49 393.83 493.62 393.83 493.52C393.83 492.92 394.32 492.44 394.94 492.44C395.55 492.44 396.05 492.92 396.05 493.52C396.05 493.62 396.05 494.49 396.05 494.59C396.05 495.19 395.55 495.67 394.94 495.67C394.32 495.67 393.83 495.19 393.83 494.59Z" id="a1KlOlhbFm"></path><path d="M390.5 494.59C390.5 494.49 390.5 493.62 390.5 493.52C390.5 492.92 390.99 492.44 391.61 492.44C392.22 492.44 392.72 492.92 392.72 493.52C392.72 493.62 392.72 494.49 392.72 494.59C392.72 495.19 392.22 495.67 391.61 495.67C390.99 495.67 390.5 495.19 390.5 494.59Z" id="d5C1naN7yW"></path><path d="M387.16 494.59C387.16 494.49 387.16 493.62 387.16 493.52C387.16 492.92 387.66 492.44 388.27 492.44C388.89 492.44 389.38 492.92 389.38 493.52C389.38 493.62 389.38 494.49 389.38 494.59C389.38 495.19 388.89 495.67 388.27 495.67C387.66 495.67 387.16 495.19 387.16 494.59Z" id="e664bCnE4a"></path><path d="M393.83 444.99C393.83 441.41 396.81 438.52 400.49 438.52" id="awhlt7j2P"></path><path d="M393.83 444.99C393.83 442.01 391.34 439.6 388.27 439.6" id="b5QLoH74p9"></path><path d="M310.29 140.24C310.29 142.21 308.95 143.81 307.31 143.81C305.67 143.81 304.33 142.21 304.33 140.24C304.33 138.27 305.67 136.67 307.31 136.67C308.95 136.67 310.29 138.27 310.29 140.24Z" id="bMQjzCb5"></path><path d="M322.32 151.9C322.32 153.88 320.99 155.48 319.35 155.48C317.7 155.48 316.37 153.88 316.37 151.9C316.37 149.93 317.7 148.33 319.35 148.33C320.99 148.33 322.32 149.93 322.32 151.9Z" id="bthWTgedl"></path><path d="M315.91 174.12C316.81 175.88 316.35 177.91 314.88 178.66C313.42 179.4 311.51 178.58 310.61 176.83C309.72 175.07 310.18 173.04 311.64 172.29C313.1 171.55 315.02 172.37 315.91 174.12Z" id="aRzcO1xJ0"></path><path d="M316.24 119.63C316.24 121.6 314.91 123.2 313.26 123.2C311.62 123.2 310.29 121.6 310.29 119.63C310.29 117.66 311.62 116.06 313.26 116.06C314.91 116.06 316.24 117.66 316.24 119.63Z" id="gaD9UVauH"></path><path d="M333.61 251.79C310.14 251.79 297.09 251.79 294.48 251.79C293.09 251.79 292.1 250.93 292.1 249.9C292.1 249.27 292.1 244.18 292.1 243.55C292.1 242.34 293.09 241.48 294.48 241.48C298.4 241.48 329.7 241.48 333.61 241.48C334.8 241.48 335.8 242.34 335.8 243.37C335.8 244.01 335.8 249.1 335.8 249.73C335.8 250.93 334.8 251.79 333.61 251.79" id="a2QDSYKpm"></path><path d="M325.67 265.54C311.72 265.54 303.98 265.54 302.43 265.54C301.04 265.54 300.05 264.68 300.05 263.65C300.05 262.86 300.05 258.91 300.05 251.79L327.85 251.79C327.85 258.91 327.85 262.86 327.85 263.65C327.85 264.68 326.86 265.54 325.67 265.54" id="c5qfYMYcqh"></path><path d="M327.85 241.48L327.85 189.94L300.05 189.94L300.05 241.48L327.85 241.48Z" id="f20yI7tyrd"></path><path d="M327.85 241.48L327.85 189.94L321.89 189.94L321.89 241.48L327.85 241.48Z" id="a63IQoYDB"></path><path d="M306 241.48L306 189.94L300.05 189.94L300.05 241.48L306 241.48Z" id="aYSbLEKU2"></path><path d="M300.05 179.63C300.05 172.51 300.05 168.56 300.05 167.77C300.05 166.74 301.04 165.88 302.43 165.88C304.75 165.88 323.34 165.88 325.67 165.88C326.86 165.88 327.85 166.74 327.85 167.77C327.85 168.56 327.85 172.51 327.85 179.63L300.05 179.63Z" id="b1KWhSite"></path><path d="M325.67 165.88C322.09 165.88 320.11 165.88 319.71 165.88C320.9 165.88 321.89 166.74 321.89 167.77C321.89 168.56 321.89 172.51 321.89 179.63L327.85 179.63C327.85 172.51 327.85 168.56 327.85 167.77C327.85 166.74 326.86 165.88 325.67 165.88" id="a85nYAZTkk"></path><path d="M302.43 165.88C306 165.88 307.99 165.88 308.39 165.88C307 165.88 306 166.74 306 167.77C306 168.56 306 172.51 306 179.63L300.05 179.63C300.05 172.51 300.05 168.56 300.05 167.77C300.05 166.74 301.04 165.88 302.43 165.88" id="a2sx8Qon00"></path><path d="M325.67 265.54C322.09 265.54 320.11 265.54 319.71 265.54C320.9 265.54 321.89 264.68 321.89 263.65C321.89 262.86 321.89 258.91 321.89 251.79L327.85 251.79C327.85 258.91 327.85 262.86 327.85 263.65C327.85 264.68 326.86 265.54 325.67 265.54" id="d3ciWbqDKf"></path><path d="M302.43 265.54C306 265.54 307.99 265.54 308.39 265.54C307 265.54 306 264.68 306 263.65C306 262.86 306 258.91 306 251.79L300.05 251.79C300.05 258.91 300.05 262.86 300.05 263.65C300.05 264.68 301.04 265.54 302.43 265.54" id="a3SgUPjGog"></path><path d="M333.61 189.94C310.14 189.94 297.09 189.94 294.48 189.94C293.09 189.94 292.1 189.08 292.1 188.05C292.1 187.39 292.1 182.17 292.1 181.52C292.1 180.49 293.09 179.63 294.48 179.63C298.4 179.63 329.7 179.63 333.61 179.63C334.8 179.63 335.8 180.49 335.8 181.52C335.8 182.15 335.8 187.24 335.8 187.87C335.8 189.08 334.8 189.94 333.61 189.94" id="g1JEdjTV6m"></path><path d="M333.61 179.63C330.04 179.63 328.05 179.63 327.65 179.63C328.84 179.63 329.84 180.49 329.84 181.52C329.84 182.15 329.84 187.24 329.84 187.87C329.84 188.91 328.84 189.76 327.65 189.76C328.25 189.76 333.02 189.76 333.61 189.76C334.8 189.76 335.8 188.91 335.8 187.87C335.8 187.24 335.8 182.15 335.8 181.52C335.8 180.49 334.8 179.63 333.61 179.63" id="ao4bZ1IYv"></path><path d="M294.48 179.63C298.06 179.63 300.05 179.63 300.44 179.63C299.05 179.63 298.06 180.49 298.06 181.52C298.06 182.15 298.06 187.24 298.06 187.87C298.06 189.08 299.05 189.94 300.44 189.94C299.85 189.94 295.08 189.94 294.48 189.94C293.09 189.94 292.1 189.08 292.1 188.05C292.1 187.39 292.1 182.17 292.1 181.52C292.1 180.49 293.09 179.63 294.48 179.63" id="cU9ZZyc0K"></path><path d="M333.61 241.48C330.04 241.48 328.05 241.48 327.65 241.48C328.84 241.48 329.84 242.34 329.84 243.37C329.84 244.01 329.84 249.1 329.84 249.73C329.84 250.76 328.84 251.62 327.65 251.62C328.25 251.62 333.02 251.62 333.61 251.62C334.8 251.62 335.8 250.76 335.8 249.73C335.8 249.1 335.8 244.01 335.8 243.37C335.8 242.34 334.8 241.48 333.61 241.48" id="b6YEdI91F"></path><path d="M294.48 241.48C298.06 241.48 300.05 241.48 300.44 241.48C299.05 241.48 298.06 242.34 298.06 243.37C298.06 244.01 298.06 249.1 298.06 249.73C298.06 250.93 299.05 251.79 300.44 251.79C299.85 251.79 295.08 251.79 294.48 251.79C293.09 251.79 292.1 250.93 292.1 249.9C292.1 249.27 292.1 244.18 292.1 243.55C292.1 242.34 293.09 241.48 294.48 241.48" id="b1TkoARJu"></path><path d="M329.82 263.96L329.77 264.27L329.69 264.57L329.59 264.87L329.45 265.15L329.29 265.42L329.1 265.69L328.88 265.93L328.65 266.16L328.39 266.38L328.11 266.57L327.81 266.74L327.49 266.89L327.15 267.02L326.8 267.12L326.44 267.2L326.06 267.24L325.67 267.26L302.43 267.26L302.04 267.24L301.65 267.2L301.28 267.12L300.92 267.02L300.57 266.89L300.24 266.74L299.92 266.57L299.63 266.38L299.35 266.16L299.1 265.93L298.87 265.69L298.66 265.42L298.49 265.15L298.34 264.87L298.22 264.57L298.13 264.27L298.08 263.96L298.06 263.65L298.06 250.08L329.84 250.08L329.84 263.65L329.82 263.96ZM302.03 263.65L302.04 263.65L302.05 263.66L302.06 263.67L302.08 263.69L302.11 263.71L302.14 263.73L302.17 263.74L302.21 263.76L302.25 263.78L302.29 263.8L302.34 263.81L302.38 263.82L302.43 263.82L325.67 263.82L325.71 263.82L325.75 263.81L325.78 263.8L325.8 263.78L325.82 263.76L325.83 263.74L325.85 263.73L325.85 263.71L325.86 263.69L325.86 263.67L325.86 263.66L325.87 263.65L325.87 263.65L325.87 253.51L302.03 253.51L302.03 263.65Z" id="c1xGUY5zLW"></path><path d="M298.06 243.2L298.06 188.22L329.84 188.22L329.84 243.2L298.06 243.2ZM302.03 239.77L325.87 239.77L325.87 191.65L302.03 191.65L302.03 239.77Z" id="e6JOz5BW2J"></path><path d="M326.44 164.22L326.8 164.3L327.15 164.4L327.49 164.53L327.81 164.68L328.11 164.85L328.39 165.04L328.65 165.26L328.88 165.49L329.1 165.73L329.29 166L329.45 166.27L329.59 166.55L329.69 166.85L329.77 167.15L329.82 167.46L329.84 167.77L329.84 181.34L298.06 181.34L298.06 167.77L298.08 167.46L298.13 167.15L298.22 166.85L298.34 166.55L298.49 166.27L298.66 166L298.87 165.73L299.1 165.49L299.35 165.26L299.63 165.04L299.92 164.85L300.24 164.68L300.57 164.53L300.92 164.4L301.28 164.3L301.65 164.22L302.04 164.18L302.43 164.16L325.67 164.16L326.06 164.18L326.44 164.22ZM302.38 167.6L302.34 167.61L302.29 167.62L302.25 167.64L302.21 167.66L302.17 167.67L302.14 167.69L302.11 167.71L302.08 167.73L302.06 167.75L302.05 167.76L302.04 167.77L302.03 167.77L302.03 177.91L325.87 177.91L325.87 167.77L325.87 167.77L325.86 167.76L325.86 167.75L325.86 167.73L325.85 167.71L325.85 167.69L325.83 167.67L325.82 167.66L325.8 167.64L325.78 167.62L325.75 167.61L325.71 167.6L325.67 167.6L302.43 167.6L302.38 167.6Z" id="f1o7uycvu8"></path><path d="M334.22 177.95L334.51 177.99L334.79 178.06L335.07 178.14L335.33 178.23L335.59 178.34L335.83 178.47L336.06 178.6L336.28 178.76L336.49 178.92L336.69 179.09L336.87 179.28L337.03 179.47L337.18 179.67L337.32 179.88L337.44 180.1L337.54 180.32L337.63 180.55L337.69 180.79L337.74 181.03L337.77 181.27L337.78 181.52L337.78 187.87L337.77 188.14L337.74 188.4L337.69 188.66L337.63 188.91L337.54 189.16L337.44 189.39L337.32 189.62L337.18 189.84L337.03 190.05L336.87 190.26L336.69 190.45L336.49 190.63L336.28 190.79L336.06 190.95L335.83 191.09L335.59 191.22L335.33 191.33L335.07 191.42L334.79 191.51L334.51 191.57L334.22 191.62L333.92 191.64L333.61 191.65L294.48 191.65L294.18 191.64L293.87 191.62L293.58 191.57L293.29 191.51L293 191.43L292.73 191.33L292.46 191.22L292.21 191.1L291.96 190.96L291.73 190.81L291.51 190.64L291.3 190.47L291.11 190.29L290.93 190.09L290.77 189.89L290.62 189.68L290.49 189.46L290.38 189.24L290.29 189.01L290.21 188.77L290.16 188.53L290.13 188.29L290.12 188.05L290.12 181.52L290.13 181.27L290.16 181.03L290.21 180.79L290.29 180.55L290.38 180.32L290.49 180.1L290.62 179.88L290.77 179.67L290.93 179.47L291.11 179.28L291.3 179.09L291.51 178.92L291.73 178.76L291.96 178.6L292.21 178.47L292.46 178.34L292.73 178.23L293 178.14L293.29 178.06L293.58 177.99L293.87 177.95L294.18 177.92L294.48 177.91L333.61 177.91L333.92 177.92L334.22 177.95ZM294.09 181.52L294.09 187.87L294.09 187.9L294.09 187.93L294.1 187.96L294.11 187.99L294.13 188.01L294.15 188.04L294.17 188.06L294.19 188.09L294.21 188.11L294.24 188.13L294.26 188.15L294.29 188.17L294.32 188.18L294.35 188.19L294.39 188.2L294.42 188.21L294.45 188.22L294.48 188.22L333.61 188.22L333.64 188.22L333.67 188.21L333.69 188.2L333.72 188.2L333.74 188.19L333.75 188.17L333.76 188.16L333.78 188.15L333.79 188.13L333.79 188.12L333.8 188.1L333.8 188.09L333.81 188.08L333.81 188.07L333.81 188.06L333.81 188.05L333.81 188.05L333.81 181.52L333.81 181.51L333.81 181.5L333.81 181.5L333.81 181.48L333.8 181.47L333.8 181.46L333.79 181.45L333.79 181.43L333.78 181.42L333.76 181.4L333.75 181.39L333.74 181.38L333.72 181.37L333.69 181.36L333.67 181.35L333.64 181.35L333.61 181.34L294.48 181.34L294.09 181.52Z" id="a43pJJ1PoQ"></path><path d="M334.22 239.8L334.51 239.85L334.79 239.91L335.07 239.99L335.33 240.09L335.59 240.2L335.83 240.32L336.06 240.46L336.28 240.61L336.49 240.78L336.69 240.95L336.87 241.13L337.03 241.33L337.18 241.53L337.32 241.74L337.44 241.96L337.54 242.18L337.63 242.41L337.69 242.65L337.74 242.89L337.77 243.13L337.78 243.37L337.78 249.73L337.77 250L337.74 250.26L337.69 250.52L337.63 250.77L337.54 251.01L337.44 251.25L337.32 251.48L337.18 251.7L337.03 251.91L336.87 252.11L336.69 252.3L336.49 252.48L336.28 252.65L336.06 252.8L335.83 252.95L335.59 253.07L335.33 253.19L335.07 253.28L334.79 253.36L334.51 253.43L334.22 253.47L333.92 253.5L333.61 253.51L294.48 253.51L294.18 253.5L293.87 253.47L293.58 253.43L293.29 253.36L293 253.28L292.73 253.19L292.46 253.08L292.21 252.95L291.96 252.81L291.73 252.66L291.51 252.5L291.3 252.33L291.11 252.14L290.93 251.95L290.77 251.75L290.62 251.54L290.49 251.32L290.38 251.1L290.29 250.87L290.21 250.63L290.16 250.39L290.13 250.15L290.12 249.9L290.12 243.55L290.13 243.28L290.16 243.02L290.21 242.76L290.29 242.51L290.38 242.26L290.49 242.03L290.62 241.8L290.77 241.58L290.93 241.37L291.11 241.16L291.3 240.97L291.51 240.79L291.73 240.63L291.96 240.47L292.21 240.33L292.46 240.2L292.73 240.09L293 239.99L293.29 239.91L293.58 239.85L293.87 239.8L294.18 239.78L294.48 239.77L333.61 239.77L333.92 239.78L334.22 239.8ZM294.09 249.73L294.09 249.76L294.09 249.79L294.1 249.82L294.11 249.84L294.13 249.87L294.15 249.9L294.17 249.92L294.19 249.95L294.21 249.97L294.24 249.99L294.26 250.01L294.29 250.02L294.32 250.04L294.35 250.05L294.39 250.06L294.42 250.07L294.45 250.07L294.48 250.07L333.61 250.07L333.64 250.07L333.67 250.07L333.69 250.06L333.72 250.05L333.74 250.04L333.75 250.03L333.76 250.02L333.78 250L333.79 249.99L333.79 249.97L333.8 249.96L333.8 249.95L333.81 249.94L333.81 249.92L333.81 249.92L333.81 249.91L333.81 249.9L333.81 243.55L333.81 243.52L333.8 243.49L333.8 243.47L333.78 243.45L333.77 243.44L333.76 243.42L333.74 243.41L333.73 243.4L333.71 243.4L333.69 243.39L333.68 243.38L333.66 243.38L333.65 243.38L333.64 243.38L333.63 243.37L333.62 243.37L333.61 243.37L294.48 243.37L294.48 243.2L294.09 243.37L294.09 249.73Z" id="adpGPJtGG"></path></defs><g><g><g><g><use xlink:href="#c6gcEMZiL" opacity="1" fill="#806a46" fill-opacity="1"></use><g><use xlink:href="#c6gcEMZiL" opacity="1" fill-opacity="0" stroke="#000000" stroke-width="1" stroke-opacity="0"></use></g></g><g><use xlink:href="#b30bqvBh50" opacity="1" fill="#806a46" fill-opacity="1"></use><g><use xlink:href="#b30bqvBh50" opacity="1" fill-opacity="0" stroke="#000000" stroke-width="1" stroke-opacity="0"></use></g></g><g><use xlink:href="#a2VZ9ZSqZD" opacity="1" fill="#806a46" fill-opacity="1"></use><g><use xlink:href="#a2VZ9ZSqZD" opacity="1" fill-opacity="0" stroke="#000000" stroke-width="1" stroke-opacity="0"></use></g></g><g><use xlink:href="#d3CyeHJcGk" opacity="1" fill="#63d3f0" fill-opacity="1"></use><g><use xlink:href="#d3CyeHJcGk" opacity="1" fill-opacity="0" stroke="#000000" stroke-width="1" stroke-opacity="0"></use></g></g><g><use xlink:href="#a307fjG5ii" opacity="1" fill="#5ac1db" fill-opacity="1"></use><g><use xlink:href="#a307fjG5ii" opacity="1" fill-opacity="0" stroke="#000000" stroke-width="1" stroke-opacity="0"></use></g></g><g><use xlink:href="#a1EurqG86L" opacity="1" fill="#3bad45" fill-opacity="1"></use><g><use xlink:href="#a1EurqG86L" opacity="1" fill-opacity="0" stroke="#000000" stroke-width="1" stroke-opacity="0"></use></g></g><g><use xlink:href="#aTlZcCBSJ" opacity="1" fill="#3bad45" fill-opacity="1"></use><g><use xlink:href="#aTlZcCBSJ" opacity="1" fill-opacity="0" stroke="#000000" stroke-width="1" stroke-opacity="0"></use></g></g><g><use xlink:href="#anZpEf9rR" opacity="1" fill="#3bad45" fill-opacity="1"></use><g><use xlink:href="#anZpEf9rR" opacity="1" fill-opacity="0" stroke="#000000" stroke-width="1" stroke-opacity="0"></use></g></g><g><use xlink:href="#b2D0hZSkIA" opacity="1" fill="#7bd9ef" fill-opacity="1"></use><g><use xlink:href="#b2D0hZSkIA" opacity="1" fill-opacity="0" stroke="#000000" stroke-width="1" stroke-opacity="0"></use></g></g><g><use xlink:href="#gJcsBpJRd" opacity="1" fill="#60c7e0" fill-opacity="1"></use><g><use xlink:href="#gJcsBpJRd" opacity="1" fill-opacity="0" stroke="#000000" stroke-width="1" stroke-opacity="0"></use></g></g><g><use xlink:href="#d1TS4UAt1o" opacity="1" fill="#60c7e0" fill-opacity="1"></use><g><use xlink:href="#d1TS4UAt1o" opacity="1" fill-opacity="0" stroke="#000000" stroke-width="1" stroke-opacity="0"></use></g></g><g><use xlink:href="#bgergLDjw" opacity="1" fill="#33963c" fill-opacity="1"></use><g><use xlink:href="#bgergLDjw" opacity="1" fill-opacity="0" stroke="#000000" stroke-width="1" stroke-opacity="0"></use></g></g><g><use xlink:href="#hmb2kh1rF" opacity="1" fill="#33963c" fill-opacity="1"></use><g><use xlink:href="#hmb2kh1rF" opacity="1" fill-opacity="0" stroke="#000000" stroke-width="1" stroke-opacity="0"></use></g></g><g><use xlink:href="#a2Ip4C6Q1s" opacity="1" fill="#33963c" fill-opacity="1"></use><g><use xlink:href="#a2Ip4C6Q1s" opacity="1" fill-opacity="0" stroke="#000000" stroke-width="1" stroke-opacity="0"></use></g></g></g><g><use xlink:href="#c3Iqlt25oa" opacity="1" fill="#63d3f0" fill-opacity="1"></use></g><g><g><use xlink:href="#aq9BTDE6" opacity="1" fill="#63d3f0" fill-opacity="1"></use></g><g><use xlink:href="#c7e9GznQH" opacity="1" fill="#63d3f0" fill-opacity="1"></use></g><g><use xlink:href="#ewbwEbDCT" opacity="1" fill="#63d3f0" fill-opacity="1"></use></g><g><use xlink:href="#b2ZqJY5H87" opacity="1" fill="#63d3f0" fill-opacity="1"></use></g><g><use xlink:href="#d97QIsSZj" opacity="1" fill="#63d3f0" fill-opacity="1"></use></g></g><g><g><use xlink:href="#ckW79ZQkm" opacity="1" fill="#559e62" fill-opacity="1"></use><g><use xlink:href="#ckW79ZQkm" opacity="1" fill-opacity="0" stroke="#000000" stroke-width="1" stroke-opacity="0"></use></g></g><g><use xlink:href="#d43y8mLC" opacity="1" fill="#eec319" fill-opacity="1"></use><g><use xlink:href="#d43y8mLC" opacity="1" fill-opacity="0" stroke="#000000" stroke-width="1" stroke-opacity="0"></use></g></g><g><use xlink:href="#k8ok78FLq1" opacity="1" fill="#eec319" fill-opacity="1"></use><g><use xlink:href="#k8ok78FLq1" opacity="1" fill-opacity="0" stroke="#000000" stroke-width="1" stroke-opacity="0"></use></g></g><g><use xlink:href="#jDem0RwRq" opacity="1" fill="#eec319" fill-opacity="1"></use><g><use xlink:href="#jDem0RwRq" opacity="1" fill-opacity="0" stroke="#000000" stroke-width="1" stroke-opacity="0"></use></g></g><g><use xlink:href="#d1qjh5jnd5" opacity="1" fill="#eec319" fill-opacity="1"></use><g><use xlink:href="#d1qjh5jnd5" opacity="1" fill-opacity="0" stroke="#000000" stroke-width="1" stroke-opacity="0"></use></g></g><g><use xlink:href="#a5Yst4K7Ad" opacity="1" fill="#eec319" fill-opacity="1"></use><g><use xlink:href="#a5Yst4K7Ad" opacity="1" fill-opacity="0" stroke="#000000" stroke-width="1" stroke-opacity="0"></use></g></g><g><use xlink:href="#h1hDFdpmCO" opacity="1" fill="#eec319" fill-opacity="1"></use><g><use xlink:href="#h1hDFdpmCO" opacity="1" fill-opacity="0" stroke="#000000" stroke-width="1" stroke-opacity="0"></use></g></g><g><use xlink:href="#a2xgi0PbXo" opacity="1" fill="#eec319" fill-opacity="1"></use><g><use xlink:href="#a2xgi0PbXo" opacity="1" fill-opacity="0" stroke="#000000" stroke-width="1" stroke-opacity="0"></use></g></g><g><use xlink:href="#b3ZrnkB45E" opacity="1" fill="#994530" fill-opacity="1"></use><g><use xlink:href="#b3ZrnkB45E" opacity="1" fill-opacity="0" stroke="#000000" stroke-width="1" stroke-opacity="0"></use></g></g><g><use xlink:href="#aeIB74DNe" opacity="1" fill="#eec319" fill-opacity="1"></use><g><use xlink:href="#aeIB74DNe" opacity="1" fill-opacity="0" stroke="#000000" stroke-width="1" stroke-opacity="0"></use></g></g><g><use xlink:href="#c17GmuYz6s" opacity="1" fill="#7a3726" fill-opacity="1"></use><g><use xlink:href="#c17GmuYz6s" opacity="1" fill-opacity="0" stroke="#000000" stroke-width="1" stroke-opacity="0"></use></g></g></g><g><g><use xlink:href="#c7dCxMj9Ct" opacity="1" fill="#639085" fill-opacity="1"></use><g><use xlink:href="#c7dCxMj9Ct" opacity="1" fill-opacity="0" stroke="#000000" stroke-width="1" stroke-opacity="0"></use></g></g><g><use xlink:href="#b2KPm4tT4Y" opacity="1" fill="#928170" fill-opacity="1"></use><g><use xlink:href="#b2KPm4tT4Y" opacity="1" fill-opacity="0" stroke="#000000" stroke-width="1" stroke-opacity="0"></use></g></g><g><use xlink:href="#a1azdeJtCU" opacity="1" fill="#d5bfa3" fill-opacity="1"></use><g><use xlink:href="#a1azdeJtCU" opacity="1" fill-opacity="0" stroke="#000000" stroke-width="1" stroke-opacity="0"></use></g></g><g><use xlink:href="#a1gN5tfm34" opacity="1" fill="#d5bfa3" fill-opacity="1"></use><g><use xlink:href="#a1gN5tfm34" opacity="1" fill-opacity="0" stroke="#000000" stroke-width="1" stroke-opacity="0"></use></g></g><g><use xlink:href="#bQFd4YfAV" opacity="1" fill="#d5bfa3" fill-opacity="1"></use><g><use xlink:href="#bQFd4YfAV" opacity="1" fill-opacity="0" stroke="#000000" stroke-width="1" stroke-opacity="0"></use></g></g><g><use xlink:href="#e4c9irPqmn" opacity="1" fill="#d5bfa3" fill-opacity="1"></use><g><use xlink:href="#e4c9irPqmn" opacity="1" fill-opacity="0" stroke="#000000" stroke-width="1" stroke-opacity="0"></use></g></g><g><use xlink:href="#agZ5u7FQf" opacity="1" fill="#d5bfa3" fill-opacity="1"></use><g><use xlink:href="#agZ5u7FQf" opacity="1" fill-opacity="0" stroke="#000000" stroke-width="1" stroke-opacity="0"></use></g></g><g><use xlink:href="#adb8Mi260" opacity="1" fill="#d5bfa3" fill-opacity="1"></use><g><use xlink:href="#adb8Mi260" opacity="1" fill-opacity="0" stroke="#000000" stroke-width="1" stroke-opacity="0"></use></g></g><g><use xlink:href="#d1ilEmBtn" opacity="1" fill="#d5bfa3" fill-opacity="1"></use><g><use xlink:href="#d1ilEmBtn" opacity="1" fill-opacity="0" stroke="#000000" stroke-width="1" stroke-opacity="0"></use></g></g><g><use xlink:href="#b1i2e9V3SZ" opacity="1" fill="#d5bfa3" fill-opacity="1"></use><g><use xlink:href="#b1i2e9V3SZ" opacity="1" fill-opacity="0" stroke="#000000" stroke-width="1" stroke-opacity="0"></use></g></g><g><use xlink:href="#a3kdG74MK1" opacity="1" fill="#d5bfa3" fill-opacity="1"></use><g><use xlink:href="#a3kdG74MK1" opacity="1" fill-opacity="0" stroke="#000000" stroke-width="1" stroke-opacity="0"></use></g></g><g><use xlink:href="#dzQ71TvFr" opacity="1" fill="#d5bfa3" fill-opacity="1"></use><g><use xlink:href="#dzQ71TvFr" opacity="1" fill-opacity="0" stroke="#000000" stroke-width="1" stroke-opacity="0"></use></g></g><g><use xlink:href="#b2qn2CDSKG" opacity="1" fill="#d5bfa3" fill-opacity="1"></use><g><use xlink:href="#b2qn2CDSKG" opacity="1" fill-opacity="0" stroke="#000000" stroke-width="1" stroke-opacity="0"></use></g></g><g><use xlink:href="#b6celzsVh" opacity="1" fill="#d5bfa3" fill-opacity="1"></use><g><use xlink:href="#b6celzsVh" opacity="1" fill-opacity="0" stroke="#000000" stroke-width="1" stroke-opacity="0"></use></g></g><g><use xlink:href="#mJS0OVn0u" opacity="1" fill="#d5bfa3" fill-opacity="1"></use><g><use xlink:href="#mJS0OVn0u" opacity="1" fill-opacity="0" stroke="#000000" stroke-width="1" stroke-opacity="0"></use></g></g><g><use xlink:href="#dzr84nMQI" opacity="1" fill="#d5bfa3" fill-opacity="1"></use><g><use xlink:href="#dzr84nMQI" opacity="1" fill-opacity="0" stroke="#000000" stroke-width="1" stroke-opacity="0"></use></g></g><g><use xlink:href="#bccQBXDcZ" opacity="1" fill="#d5bfa3" fill-opacity="1"></use><g><use xlink:href="#bccQBXDcZ" opacity="1" fill-opacity="0" stroke="#000000" stroke-width="1" stroke-opacity="0"></use></g></g><g><use xlink:href="#aF9djtAA4" opacity="1" fill="#d5bfa3" fill-opacity="1"></use><g><use xlink:href="#aF9djtAA4" opacity="1" fill-opacity="0" stroke="#000000" stroke-width="1" stroke-opacity="0"></use></g></g><g><use xlink:href="#a2LvH8Ek1i" opacity="1" fill="#d5bfa3" fill-opacity="1"></use><g><use xlink:href="#a2LvH8Ek1i" opacity="1" fill-opacity="0" stroke="#000000" stroke-width="1" stroke-opacity="0"></use></g></g><g><use xlink:href="#j2WnzsoGq" opacity="1" fill="#d5bfa3" fill-opacity="1"></use><g><use xlink:href="#j2WnzsoGq" opacity="1" fill-opacity="0" stroke="#000000" stroke-width="1" stroke-opacity="0"></use></g></g><g><use xlink:href="#fqkzr7NBf" opacity="1" fill="#5d9069" fill-opacity="1"></use><g><use xlink:href="#fqkzr7NBf" opacity="1" fill-opacity="0" stroke="#000000" stroke-width="1" stroke-opacity="0"></use></g></g><g><use xlink:href="#c161KE4W4L" opacity="1" fill="#81cb97" fill-opacity="1"></use><g><use xlink:href="#c161KE4W4L" opacity="1" fill-opacity="0" stroke="#000000" stroke-width="1" stroke-opacity="0"></use></g></g><g><use xlink:href="#i214XmBVeJ" opacity="1" fill="#5d9069" fill-opacity="1"></use><g><use xlink:href="#i214XmBVeJ" opacity="1" fill-opacity="0" stroke="#000000" stroke-width="1" stroke-opacity="0"></use></g></g><g><use xlink:href="#h1wFfM5HlF" opacity="1" fill="#81cb97" fill-opacity="1"></use><g><use xlink:href="#h1wFfM5HlF" opacity="1" fill-opacity="0" stroke="#000000" stroke-width="1" stroke-opacity="0"></use></g></g></g><g><g><use xlink:href="#bkDgah6l0" opacity="1" fill="#88c057" fill-opacity="1"></use><g><use xlink:href="#bkDgah6l0" opacity="1" fill-opacity="0" stroke="#000000" stroke-width="1" stroke-opacity="0"></use></g></g><g><use xlink:href="#b4vE3x6epF" opacity="1" fill="#659c35" fill-opacity="1"></use><g><use xlink:href="#b4vE3x6epF" opacity="1" fill-opacity="0" stroke="#000000" stroke-width="1" stroke-opacity="0"></use></g></g><g><use xlink:href="#ahOiUQLH" opacity="1" fill="#000000" fill-opacity="0"></use><g><use xlink:href="#ahOiUQLH" opacity="1" fill-opacity="0" stroke="#6c4127" stroke-width="2" stroke-opacity="1"></use></g></g><g><use xlink:href="#c1HKDDft5f" opacity="1" fill="#000000" fill-opacity="0"></use><g><use xlink:href="#c1HKDDft5f" opacity="1" fill-opacity="0" stroke="#6c4127" stroke-width="2" stroke-opacity="1"></use></g></g><g><use xlink:href="#eeFNCuYMv" opacity="1" fill="#000000" fill-opacity="0"></use><g><use xlink:href="#eeFNCuYMv" opacity="1" fill-opacity="0" stroke="#6c4127" stroke-width="2" stroke-opacity="1"></use></g></g><g><use xlink:href="#a10hDYK6K8" opacity="1" fill="#000000" fill-opacity="0"></use><g><use xlink:href="#a10hDYK6K8" opacity="1" fill-opacity="0" stroke="#6c4127" stroke-width="2" stroke-opacity="1"></use></g></g><g><use xlink:href="#g1Lp8XHLR" opacity="1" fill="#000000" fill-opacity="0"></use><g><use xlink:href="#g1Lp8XHLR" opacity="1" fill-opacity="0" stroke="#6c4127" stroke-width="2" stroke-opacity="1"></use></g></g><g><use xlink:href="#b1505Z7eKq" opacity="1" fill="#000000" fill-opacity="0"></use><g><use xlink:href="#b1505Z7eKq" opacity="1" fill-opacity="0" stroke="#6c4127" stroke-width="2" stroke-opacity="1"></use></g></g></g><g><g><use xlink:href="#i2olMTeKy0" opacity="1" fill="#659c35" fill-opacity="1"></use><g><use xlink:href="#i2olMTeKy0" opacity="1" fill-opacity="0" stroke="#000000" stroke-width="1" stroke-opacity="0"></use></g></g><g><use xlink:href="#b1SGkiAs66" opacity="1" fill="#6b5b4b" fill-opacity="1"></use><g><use xlink:href="#b1SGkiAs66" opacity="1" fill-opacity="0" stroke="#000000" stroke-width="1" stroke-opacity="0"></use></g></g><g><use xlink:href="#a8uRY4Ei5" opacity="1" fill="#a4e869" fill-opacity="1"></use><g><use xlink:href="#a8uRY4Ei5" opacity="1" fill-opacity="0" stroke="#000000" stroke-width="1" stroke-opacity="0"></use></g></g><g><use xlink:href="#bL50RU8rq" opacity="1" fill="#a4e869" fill-opacity="1"></use><g><use xlink:href="#bL50RU8rq" opacity="1" fill-opacity="0" stroke="#000000" stroke-width="1" stroke-opacity="0"></use></g></g><g><use xlink:href="#a182yiyUqM" opacity="1" fill="#a4e869" fill-opacity="1"></use><g><use xlink:href="#a182yiyUqM" opacity="1" fill-opacity="0" stroke="#000000" stroke-width="1" stroke-opacity="0"></use></g></g><g><use xlink:href="#kGtqXD7cz" opacity="1" fill="#a4e869" fill-opacity="1"></use><g><use xlink:href="#kGtqXD7cz" opacity="1" fill-opacity="0" stroke="#000000" stroke-width="1" stroke-opacity="0"></use></g></g><g><use xlink:href="#d2EitMzDTg" opacity="1" fill="#a4e869" fill-opacity="1"></use><g><use xlink:href="#d2EitMzDTg" opacity="1" fill-opacity="0" stroke="#000000" stroke-width="1" stroke-opacity="0"></use></g></g><g><use xlink:href="#e9h9HgaY" opacity="1" fill="#a4e869" fill-opacity="1"></use><g><use xlink:href="#e9h9HgaY" opacity="1" fill-opacity="0" stroke="#000000" stroke-width="1" stroke-opacity="0"></use></g></g><g><use xlink:href="#fh0s8Kbof" opacity="1" fill="#a4e869" fill-opacity="1"></use><g><use xlink:href="#fh0s8Kbof" opacity="1" fill-opacity="0" stroke="#000000" stroke-width="1" stroke-opacity="0"></use></g></g><g><use xlink:href="#f27ssEBcrB" opacity="1" fill="#a4e869" fill-opacity="1"></use><g><use xlink:href="#f27ssEBcrB" opacity="1" fill-opacity="0" stroke="#000000" stroke-width="1" stroke-opacity="0"></use></g></g><g><use xlink:href="#cQ8A7suAZ" opacity="1" fill="#a4e869" fill-opacity="1"></use><g><use xlink:href="#cQ8A7suAZ" opacity="1" fill-opacity="0" stroke="#000000" stroke-width="1" stroke-opacity="0"></use></g></g><g><use xlink:href="#ltvSQcEJl" opacity="1" fill="#23a24d" fill-opacity="1"></use><g><use xlink:href="#ltvSQcEJl" opacity="1" fill-opacity="0" stroke="#000000" stroke-width="1" stroke-opacity="0"></use></g></g><g><use xlink:href="#brDHKaaMj" opacity="1" fill="#23a24d" fill-opacity="1"></use><g><use xlink:href="#brDHKaaMj" opacity="1" fill-opacity="0" stroke="#000000" stroke-width="1" stroke-opacity="0"></use></g></g><g><use xlink:href="#b7jk9Ea6NA" opacity="1" fill="#23a24d" fill-opacity="1"></use><g><use xlink:href="#b7jk9Ea6NA" opacity="1" fill-opacity="0" stroke="#000000" stroke-width="1" stroke-opacity="0"></use></g></g><g><use xlink:href="#b2izizneHn" opacity="1" fill="#23a24d" fill-opacity="1"></use><g><use xlink:href="#b2izizneHn" opacity="1" fill-opacity="0" stroke="#000000" stroke-width="1" stroke-opacity="0"></use></g></g><g><use xlink:href="#h1lqBJeEP8" opacity="1" fill="#23a24d" fill-opacity="1"></use><g><use xlink:href="#h1lqBJeEP8" opacity="1" fill-opacity="0" stroke="#000000" stroke-width="1" stroke-opacity="0"></use></g></g><g><use xlink:href="#g2hPHC4C0z" opacity="1" fill="#23a24d" fill-opacity="1"></use><g><use xlink:href="#g2hPHC4C0z" opacity="1" fill-opacity="0" stroke="#000000" stroke-width="1" stroke-opacity="0"></use></g></g><g><use xlink:href="#j1KtwGNHGn" opacity="1" fill="#23a24d" fill-opacity="1"></use><g><use xlink:href="#j1KtwGNHGn" opacity="1" fill-opacity="0" stroke="#000000" stroke-width="1" stroke-opacity="0"></use></g></g><g><use xlink:href="#c17VCBGNos" opacity="1" fill="#23a24d" fill-opacity="1"></use><g><use xlink:href="#c17VCBGNos" opacity="1" fill-opacity="0" stroke="#000000" stroke-width="1" stroke-opacity="0"></use></g></g><g><use xlink:href="#b3Uo9k1Ghf" opacity="1" fill="#23a24d" fill-opacity="1"></use><g><use xlink:href="#b3Uo9k1Ghf" opacity="1" fill-opacity="0" stroke="#000000" stroke-width="1" stroke-opacity="0"></use></g></g><g><use xlink:href="#b33tgmHKsC" opacity="1" fill="#23a24d" fill-opacity="1"></use><g><use xlink:href="#b33tgmHKsC" opacity="1" fill-opacity="0" stroke="#000000" stroke-width="1" stroke-opacity="0"></use></g></g><g><use xlink:href="#a8AHFl4enX" opacity="1" fill="#23a24d" fill-opacity="1"></use><g><use xlink:href="#a8AHFl4enX" opacity="1" fill-opacity="0" stroke="#000000" stroke-width="1" stroke-opacity="0"></use></g></g><g><use xlink:href="#a1KlOlhbFm" opacity="1" fill="#23a24d" fill-opacity="1"></use><g><use xlink:href="#a1KlOlhbFm" opacity="1" fill-opacity="0" stroke="#000000" stroke-width="1" stroke-opacity="0"></use></g></g><g><use xlink:href="#d5C1naN7yW" opacity="1" fill="#23a24d" fill-opacity="1"></use><g><use xlink:href="#d5C1naN7yW" opacity="1" fill-opacity="0" stroke="#000000" stroke-width="1" stroke-opacity="0"></use></g></g><g><use xlink:href="#e664bCnE4a" opacity="1" fill="#23a24d" fill-opacity="1"></use><g><use xlink:href="#e664bCnE4a" opacity="1" fill-opacity="0" stroke="#000000" stroke-width="1" stroke-opacity="0"></use></g></g><g><use xlink:href="#awhlt7j2P" opacity="1" fill="#000000" fill-opacity="0"></use><g><use xlink:href="#awhlt7j2P" opacity="1" fill-opacity="0" stroke="#556080" stroke-width="2" stroke-opacity="1"></use></g></g><g><use xlink:href="#b5QLoH74p9" opacity="1" fill="#000000" fill-opacity="0"></use><g><use xlink:href="#b5QLoH74p9" opacity="1" fill-opacity="0" stroke="#556080" stroke-width="2" stroke-opacity="1"></use></g></g></g><g><g><use xlink:href="#bMQjzCb5" opacity="1" fill="#0c0c0c" fill-opacity="1"></use></g><g><use xlink:href="#bthWTgedl" opacity="1" fill="#0c0c0c" fill-opacity="1"></use></g><g><use xlink:href="#aRzcO1xJ0" opacity="1" fill="#0c0c0c" fill-opacity="1"></use></g><g><use xlink:href="#gaD9UVauH" opacity="1" fill="#0c0c0c" fill-opacity="1"></use></g></g><g><g><use xlink:href="#a2QDSYKpm" opacity="1" fill="#ffe100" fill-opacity="1"></use><g><use xlink:href="#a2QDSYKpm" opacity="1" fill-opacity="0" stroke="#000000" stroke-width="1" stroke-opacity="0"></use></g></g><g><use xlink:href="#c5qfYMYcqh" opacity="1" fill="#ffe100" fill-opacity="1"></use><g><use xlink:href="#c5qfYMYcqh" opacity="1" fill-opacity="0" stroke="#000000" stroke-width="1" stroke-opacity="0"></use></g></g><g><use xlink:href="#f20yI7tyrd" opacity="1" fill="#ffe100" fill-opacity="1"></use><g><use xlink:href="#f20yI7tyrd" opacity="1" fill-opacity="0" stroke="#000000" stroke-width="1" stroke-opacity="0"></use></g></g><g><use xlink:href="#a63IQoYDB" opacity="1" fill="#ffa800" fill-opacity="1"></use><g><use xlink:href="#a63IQoYDB" opacity="1" fill-opacity="0" stroke="#000000" stroke-width="1" stroke-opacity="0"></use></g></g><g><use xlink:href="#aYSbLEKU2" opacity="1" fill="#ffffff" fill-opacity="1"></use><g><use xlink:href="#aYSbLEKU2" opacity="1" fill-opacity="0" stroke="#000000" stroke-width="1" stroke-opacity="0"></use></g></g><g><use xlink:href="#b1KWhSite" opacity="1" fill="#ffe100" fill-opacity="1"></use><g><use xlink:href="#b1KWhSite" opacity="1" fill-opacity="0" stroke="#000000" stroke-width="1" stroke-opacity="0"></use></g></g><g><use xlink:href="#a85nYAZTkk" opacity="1" fill="#ffa800" fill-opacity="1"></use><g><use xlink:href="#a85nYAZTkk" opacity="1" fill-opacity="0" stroke="#000000" stroke-width="1" stroke-opacity="0"></use></g></g><g><use xlink:href="#a2sx8Qon00" opacity="1" fill="#ffffff" fill-opacity="1"></use><g><use xlink:href="#a2sx8Qon00" opacity="1" fill-opacity="0" stroke="#000000" stroke-width="1" stroke-opacity="0"></use></g></g><g><use xlink:href="#d3ciWbqDKf" opacity="1" fill="#ffa800" fill-opacity="1"></use><g><use xlink:href="#d3ciWbqDKf" opacity="1" fill-opacity="0" stroke="#000000" stroke-width="1" stroke-opacity="0"></use></g></g><g><use xlink:href="#a3SgUPjGog" opacity="1" fill="#ffffff" fill-opacity="1"></use><g><use xlink:href="#a3SgUPjGog" opacity="1" fill-opacity="0" stroke="#000000" stroke-width="1" stroke-opacity="0"></use></g></g><g><use xlink:href="#g1JEdjTV6m" opacity="1" fill="#ffe100" fill-opacity="1"></use><g><use xlink:href="#g1JEdjTV6m" opacity="1" fill-opacity="0" stroke="#000000" stroke-width="1" stroke-opacity="0"></use></g></g><g><use xlink:href="#ao4bZ1IYv" opacity="1" fill="#ffa800" fill-opacity="1"></use><g><use xlink:href="#ao4bZ1IYv" opacity="1" fill-opacity="0" stroke="#000000" stroke-width="1" stroke-opacity="0"></use></g></g><g><use xlink:href="#cU9ZZyc0K" opacity="1" fill="#ffffff" fill-opacity="1"></use><g><use xlink:href="#cU9ZZyc0K" opacity="1" fill-opacity="0" stroke="#000000" stroke-width="1" stroke-opacity="0"></use></g></g><g><use xlink:href="#b6YEdI91F" opacity="1" fill="#ffa800" fill-opacity="1"></use><g><use xlink:href="#b6YEdI91F" opacity="1" fill-opacity="0" stroke="#000000" stroke-width="1" stroke-opacity="0"></use></g></g><g><use xlink:href="#b1TkoARJu" opacity="1" fill="#ffffff" fill-opacity="1"></use><g><use xlink:href="#b1TkoARJu" opacity="1" fill-opacity="0" stroke="#000000" stroke-width="1" stroke-opacity="0"></use></g></g><g><use xlink:href="#c1xGUY5zLW" opacity="1" fill="#000000" fill-opacity="1"></use><g><use xlink:href="#c1xGUY5zLW" opacity="1" fill-opacity="0" stroke="#000000" stroke-width="1" stroke-opacity="0"></use></g></g><g><use xlink:href="#e6JOz5BW2J" opacity="1" fill="#000000" fill-opacity="1"></use><g><use xlink:href="#e6JOz5BW2J" opacity="1" fill-opacity="0" stroke="#000000" stroke-width="1" stroke-opacity="0"></use></g></g><g><use xlink:href="#f1o7uycvu8" opacity="1" fill="#000000" fill-opacity="1"></use><g><use xlink:href="#f1o7uycvu8" opacity="1" fill-opacity="0" stroke="#000000" stroke-width="1" stroke-opacity="0"></use></g></g><g><use xlink:href="#a43pJJ1PoQ" opacity="1" fill="#000000" fill-opacity="1"></use><g><use xlink:href="#a43pJJ1PoQ" opacity="1" fill-opacity="0" stroke="#000000" stroke-width="1" stroke-opacity="0"></use></g></g><g><use xlink:href="#adpGPJtGG" opacity="1" fill="#000000" fill-opacity="1"></use><g><use xlink:href="#adpGPJtGG" opacity="1" fill-opacity="0" stroke="#000000" stroke-width="1" stroke-opacity="0"></use></g></g></g></g></g></svg>